<svg version="1.1" id="Layer_1" xmlns="http://www.w3.org/2000/svg" xmlns:xlink="http://www.w3.org/1999/xlink" x="0px" y="0px"
	 width="100%" viewBox="0 0 1024 1024" enable-background="new 0 0 1024 1024" xml:space="preserve">
<path fill="#000000" opacity="1.000000" stroke="none" 
	d="
M249.650146,563.999878 
	C249.650940,467.847809 249.511322,372.195404 249.732971,276.543854 
	C249.805771,245.128021 267.407043,221.841797 293.989410,213.112869 
	C305.205475,209.429810 316.974762,207.909378 328.549622,205.757477 
	C370.475159,197.962921 412.426025,190.296921 454.423981,182.903900 
	C471.082153,179.971542 487.620056,176.326111 504.445129,174.318817 
	C514.400269,173.131134 523.937134,175.641220 533.549438,177.232086 
	C565.791565,182.568314 597.990051,188.168655 630.204529,193.671875 
	C662.915039,199.259827 695.720886,204.464020 728.062683,211.877930 
	C755.239136,218.107788 774.240662,242.213440 775.333679,270.010834 
	C777.167236,316.640381 775.905273,363.293610 776.059570,409.935303 
	C776.311462,486.089386 776.209717,562.244690 776.230896,638.399475 
	C776.242859,681.612000 759.691895,717.822388 728.641052,747.249390 
	C675.963684,797.171997 615.630066,836.043518 550.854370,868.266235 
	C541.637756,872.851013 532.180664,876.898010 521.794128,878.488037 
	C509.165924,880.421143 497.286407,878.098389 485.761017,873.227600 
	C454.966522,860.213196 426.241028,843.390381 398.245178,825.270508 
	C368.567780,806.062134 340.535431,784.653564 313.339844,762.076416 
	C287.741455,740.825317 266.831360,716.332336 256.336548,684.134583 
	C252.086090,671.094238 249.701630,657.718079 249.669632,643.986328 
	C249.607880,617.491028 249.650833,590.995422 249.650146,563.999878 
M272.345825,492.499939 
	C272.346405,522.164612 272.153015,551.830933 272.409515,581.493408 
	C272.611023,604.798462 271.406158,628.115479 273.269592,651.413635 
	C274.427826,665.894653 278.457184,679.467896 284.766846,692.439209 
	C295.949829,715.428711 313.143066,733.260681 332.815491,749.144897 
	C365.907532,775.864380 400.132050,800.954773 436.787933,822.585938 
	C456.719086,834.347717 476.730927,846.016296 498.638489,853.921631 
	C506.872711,856.893005 515.084656,857.392883 523.575012,854.910461 
	C530.483948,852.890381 537.130371,850.272461 543.496460,847.004761 
	C601.531311,817.215210 655.826355,781.848816 704.787781,738.557983 
	C736.537598,710.485413 753.718689,676.159546 753.138306,632.876221 
	C752.313843,571.389893 752.844849,509.885437 752.798645,448.388733 
	C752.755432,390.891998 752.789429,333.395081 752.637451,275.898621 
	C752.574219,251.963440 737.479065,234.889740 713.860046,231.267761 
	C705.169250,229.935028 696.525940,228.290421 687.865601,226.761520 
	C662.693542,222.317596 637.535889,217.790634 612.349976,213.426468 
	C583.568420,208.439255 554.775574,203.513336 525.956604,198.748260 
	C519.928345,197.751526 513.897705,195.548981 507.726837,196.623840 
	C479.412903,201.555725 451.138794,206.715820 422.845520,211.766861 
	C386.054962,218.334839 349.264221,224.902298 312.464722,231.420029 
	C293.709351,234.741867 280.067688,244.133102 274.810028,263.261902 
	C272.911316,270.169952 272.388031,277.358093 272.382446,284.509277 
	C272.328400,353.506104 272.347839,422.503021 272.345825,492.499939 
z"/>
<path fill="#000000" opacity="1.000000" stroke="none" 
	d="
M737.345215,651.848755 
	C735.543762,672.807678 728.285034,691.106750 715.104004,706.903320 
	C697.364075,728.163391 675.814026,745.278442 654.044250,762.076660 
	C620.036804,788.317871 583.334839,810.284363 545.026306,829.594543 
	C534.491638,834.904663 523.876709,840.136230 511.445740,839.471436 
	C504.827911,839.117554 498.641876,837.489258 492.679810,834.872498 
	C457.919678,819.615906 425.600342,800.072144 394.533142,778.416687 
	C370.459320,761.635986 347.372986,743.555115 326.085999,723.317810 
	C310.854736,708.837646 297.807617,692.731384 291.620331,672.097168 
	C289.079681,663.624207 287.594086,655.033936 287.599762,646.108643 
	C287.675995,526.132568 287.664276,406.156403 287.615051,286.180267 
	C287.612427,279.756775 288.737549,273.586334 290.947174,267.646057 
	C295.193817,256.229401 303.336365,249.796494 315.513794,247.610245 
	C350.795654,241.276016 385.996033,234.488998 421.238129,227.931915 
	C450.124237,222.557404 478.996277,217.097961 507.936066,212.027313 
	C516.090210,210.598587 524.050110,213.724655 532.025208,215.106247 
	C563.095215,220.488815 594.142944,226.008606 625.153076,231.726501 
	C655.178894,237.262909 685.175049,242.969894 715.128784,248.883026 
	C726.418762,251.111771 734.273621,261.203796 736.323730,274.542511 
	C737.110352,279.660706 737.372803,284.773102 737.371460,289.940582 
	C737.341553,410.416748 737.347351,530.892883 737.345215,651.848755 
M522.592041,507.088104 
	C516.825867,505.734589 510.942810,505.696960 505.224670,506.770111 
	C492.172028,509.219788 479.125244,511.789673 466.212891,514.881897 
	C417.106445,526.641846 368.175201,539.147339 318.704895,549.343445 
	C314.190338,550.273865 312.284637,552.553284 312.306824,557.228394 
	C312.438843,585.054016 312.211121,612.882629 312.519867,640.705566 
	C312.620758,649.799500 313.367584,658.881775 316.772064,667.651672 
	C322.647491,682.786865 332.473022,695.114380 343.690338,706.340149 
	C387.483673,750.166626 438.354553,783.832214 494.067352,810.536316 
	C506.699158,816.590881 518.810425,816.502258 531.453979,810.715820 
	C547.389343,803.422791 562.658936,794.948730 577.655884,785.956360 
	C618.805115,761.282288 657.693115,733.714478 689.934509,697.694763 
	C704.652649,681.251831 713.555969,662.861755 712.848389,639.958008 
	C712.015320,612.990662 712.656921,585.977783 712.648621,558.984680 
	C712.646301,551.486816 712.168884,550.962463 704.907349,549.327026 
	C669.918945,541.447021 634.983826,533.350403 600.198730,524.598083 
	C574.765198,518.198792 549.289551,511.931335 522.592041,507.088104 
M613.871887,366.244690 
	C615.110779,364.182220 615.110779,364.182220 613.114441,360.136871 
	C605.735352,345.183350 610.830200,330.297729 625.859802,323.964111 
	C630.781555,337.176117 635.722473,350.366180 640.579041,363.587189 
	C641.080811,364.953186 641.455444,366.563446 641.234619,367.956543 
	C640.762085,370.936798 641.949585,372.068207 644.745422,372.708740 
	C653.963928,374.820709 663.120544,377.201294 672.323181,379.385315 
	C673.854858,379.748840 675.556213,380.395752 677.104614,379.044830 
	C677.567505,376.515991 676.005737,374.618835 675.013855,372.570435 
	C665.296021,352.502228 655.845825,332.319611 647.950317,311.440674 
	C646.774963,308.332520 647.247375,306.291595 649.835754,304.115112 
	C655.057739,299.724091 660.111877,295.113770 665.004150,290.356201 
	C669.120728,286.352905 673.797241,282.835388 677.626526,277.171478 
	C664.501221,274.146637 652.060730,271.457367 638.744019,269.696991 
	C640.918335,277.178802 637.762695,281.913422 632.972473,286.154663 
	C629.361206,289.352020 626.214966,293.080597 622.557739,296.218384 
	C618.757874,299.478516 615.211670,303.200043 609.947510,305.725342 
	C609.466675,291.823334 609.412231,278.835083 614.604675,265.739777 
	C602.295776,263.911713 590.922791,261.689972 578.903381,261.157379 
	C579.625488,265.897797 581.960754,269.084290 582.419861,272.958405 
	C584.522156,290.697815 584.783936,308.511719 583.690002,326.266937 
	C582.997986,337.499146 585.852844,349.374359 578.287659,360.264282 
	C590.408386,362.296204 601.804199,364.206635 613.871887,366.244690 
M404.003723,368.270630 
	C409.577148,367.401428 415.193207,366.742218 420.715302,365.620422 
	C433.201965,363.083679 442.486816,356.844971 441.962799,340.800415 
	C441.337494,321.654633 441.754059,302.476105 441.625519,283.312378 
	C441.565796,274.407715 436.985474,269.050995 428.416443,267.080322 
	C421.823700,265.564087 415.529846,267.610657 409.163788,268.448853 
	C398.794342,269.814148 388.464325,271.560730 378.377411,274.413269 
	C366.504608,277.770813 356.473999,286.596954 357.094604,302.499207 
	C357.789551,320.306458 357.186554,338.160889 357.388000,355.992035 
	C357.530273,368.582520 366.415680,375.523987 378.678375,373.102875 
	C386.823242,371.494751 394.995789,370.026855 404.003723,368.270630 
M463.949585,350.348877 
	C463.130646,352.437836 461.275452,354.210724 461.898590,356.796631 
	C464.272552,358.115112 466.581848,356.868988 468.758423,356.566132 
	C475.547180,355.621460 482.362762,355.810181 489.162872,355.450836 
	C492.194397,355.290619 494.985535,354.951996 493.950195,350.122864 
	C492.826202,344.880066 495.239868,339.673920 495.968536,334.433044 
	C496.195831,332.798370 497.819122,332.823029 499.149567,332.617676 
	C506.763153,331.442566 514.422180,331.683533 522.076355,331.864990 
	C523.971558,331.909912 525.906494,332.306976 526.193481,334.645172 
	C526.896545,340.373108 529.359924,345.948212 527.971741,351.855469 
	C527.307556,354.681732 528.643005,355.546844 531.049561,355.584564 
	C539.199707,355.712341 547.266418,356.791260 555.364502,357.554108 
	C561.225220,358.106232 562.390076,356.460266 560.189392,351.040527 
	C550.800415,327.917847 543.246094,304.183746 536.666504,280.138763 
	C534.550171,272.404419 529.645325,264.652496 536.124023,256.703125 
	C534.999207,256.176880 534.569580,255.833405 534.106445,255.779816 
	C519.687073,254.111511 505.248657,254.441910 490.817688,255.545029 
	C488.095245,255.753113 487.093811,257.352325 488.282562,260.099091 
	C489.942261,263.934021 489.626068,267.831421 488.527496,271.789642 
	C486.973511,277.388641 485.705872,283.067352 484.141571,288.663239 
	C478.377502,309.282898 473.941132,330.338379 463.949585,350.348877 
M418.055695,406.613312 
	C414.190338,400.022369 407.915863,397.397156 400.816895,397.494995 
	C386.453949,397.692841 372.528259,401.262695 358.658630,404.536469 
	C347.610596,407.144226 338.850281,415.923889 339.230042,430.596802 
	C339.703979,448.909027 339.113373,467.246704 339.429321,485.565704 
	C339.666534,499.317749 347.121887,504.113800 358.498566,503.279053 
	C372.830048,502.227570 387.185181,499.592133 400.979614,495.260040 
	C414.631775,490.972595 421.682770,479.439240 420.696289,465.202881 
	C420.477753,462.049713 419.316895,461.181976 416.260254,461.778198 
	C412.519806,462.507751 408.695801,463.209656 404.908661,463.205811 
	C399.174591,463.199951 395.425018,463.995422 394.614410,471.224457 
	C393.804565,478.447052 384.553864,482.893585 374.623413,482.350861 
	C369.166992,482.052704 366.243561,479.513184 365.728333,474.141510 
	C364.310730,459.362549 364.285614,444.566284 365.712036,429.785034 
	C366.181671,424.918610 368.701660,421.501984 373.342285,419.570953 
	C378.079041,417.599945 382.905273,417.059418 387.972015,417.587189 
	C391.330444,417.937012 393.015045,419.925781 393.844482,422.857574 
	C395.698059,429.409149 396.014435,429.631226 402.778442,428.215149 
	C404.726105,427.807404 406.686829,427.460632 408.630341,427.034637 
	C421.884979,424.129517 423.085815,421.987671 418.943848,408.681549 
	C418.795624,408.205261 418.592072,407.746216 418.055695,406.613312 
M634.898376,496.523590 
	C641.882446,497.951233 648.874817,499.340179 655.847046,500.823334 
	C659.169373,501.529999 660.644226,500.229431 659.234863,497.173248 
	C655.641357,489.380981 657.121094,481.159302 656.582703,473.089264 
	C656.195618,467.286896 657.950317,462.481476 661.048462,457.681183 
	C670.505493,443.028564 679.290405,427.938904 690.192322,413.863495 
	C689.098694,413.184784 688.343140,412.398590 687.464111,412.219940 
	C679.673645,410.636749 671.886963,409.000641 664.041199,407.741882 
	C661.333008,407.307404 660.256897,409.492950 660.441528,411.992188 
	C660.712891,415.663757 659.330261,418.806946 657.713196,421.950226 
	C654.514587,428.167938 651.433411,434.446106 648.236450,440.664673 
	C647.595154,441.912109 647.332520,443.629913 644.558228,443.851868 
	C641.200073,429.924591 629.607239,418.452423 632.109436,401.972107 
	C622.060425,399.019928 611.565430,397.636993 601.074158,396.390869 
	C597.470215,395.962769 596.507690,397.919922 598.694519,400.950104 
	C601.230408,404.464081 603.782532,407.913269 605.688599,411.846375 
	C612.728455,426.373047 619.944946,440.814178 626.968506,455.348633 
	C632.616211,467.035797 632.240356,479.053894 628.120056,491.043488 
	C627.201904,493.715057 627.900330,494.768005 630.223877,495.426514 
	C631.500916,495.788483 632.809875,496.037842 634.898376,496.523590 
M545.614258,391.255859 
	C543.788757,391.114807 541.965576,390.918274 540.137390,390.841675 
	C528.347656,390.347778 516.557861,389.849976 504.765717,389.419525 
	C500.390564,389.259827 497.948425,390.867310 498.261383,395.881958 
	C498.623779,401.688416 498.299683,407.535187 498.392609,413.362549 
	C498.419678,415.061798 497.737457,417.104004 500.546539,418.638519 
	C508.028381,410.442993 517.950378,411.301117 528.386169,412.020569 
	C528.386169,414.242493 528.386658,416.045441 528.386108,417.848419 
	C528.381531,432.004028 528.394043,446.159698 528.364990,460.315277 
	C528.350464,467.418182 529.272644,474.672424 524.042664,482.002594 
	C535.677673,482.937988 546.176331,483.782013 556.993591,484.651672 
	C556.804382,479.563629 553.993774,476.314453 553.616272,472.287872 
	C551.902405,454.006165 553.213989,435.693390 552.825989,417.401276 
	C552.747070,413.677856 555.050720,413.398712 557.794006,413.774689 
	C564.570312,414.703308 571.307312,415.729858 576.755859,420.504578 
	C577.633789,421.273895 578.687012,422.510437 580.397888,421.500824 
	C581.485107,412.742340 579.499146,404.022980 579.355103,395.242340 
	C579.309021,392.431427 577.091614,392.444580 575.008667,392.370392 
	C565.533020,392.032990 556.058838,391.653900 545.614258,391.255859 
M444.584381,402.319702 
	C445.592957,406.520416 446.370087,410.739563 446.357971,415.096436 
	C446.312988,431.251617 446.400208,447.407349 446.307159,463.562134 
	C446.262207,471.368011 446.141663,479.219604 440.523804,486.657318 
	C452.802094,486.350922 464.051941,484.399048 475.370270,483.389526 
	C477.568268,483.193420 477.738739,481.511566 476.928009,479.614746 
	C475.686005,476.708862 474.806641,473.739685 474.612518,470.501190 
	C473.475891,451.537933 473.814301,432.558350 473.894714,413.584320 
	C473.917847,408.122498 474.301453,402.626312 475.810699,397.310333 
	C477.352570,391.879578 476.532806,390.813599 470.750793,391.139038 
	C464.110992,391.512817 457.479736,392.056671 450.837067,392.355621 
	C442.977631,392.709320 441.872681,394.193573 444.584381,402.319702 
z"/>
<path fill="#000000" opacity="1.000000" stroke="none" 
	d="
M581.257141,567.104614 
	C584.561279,578.256592 580.676453,587.762024 575.815979,596.992493 
	C570.858704,606.406677 563.201599,613.177795 554.100281,618.508301 
	C552.031189,619.720093 548.562500,620.704041 550.512024,624.388245 
	C552.374207,627.907532 555.188171,626.553162 557.874451,625.423523 
	C562.473450,623.489441 567.075989,621.562439 571.703552,619.698181 
	C575.231995,618.276733 578.700378,618.562805 581.469727,621.210449 
	C584.514587,624.121399 585.046570,627.923401 583.761963,631.838806 
	C580.792236,640.889893 574.653442,647.588196 567.372375,653.381470 
	C560.810547,658.602417 553.632935,662.748047 545.771301,665.704773 
	C543.755066,666.463135 541.761719,667.174500 541.330200,669.860901 
	C540.142334,677.256470 535.131104,680.398987 528.197510,681.347961 
	C520.281494,682.431519 520.351196,682.471008 520.173950,690.443909 
	C520.107666,693.425293 519.796631,696.418213 519.356201,699.369934 
	C518.842896,702.809753 517.206299,705.317505 513.243774,705.346863 
	C509.542358,705.374268 507.492340,703.491943 506.436462,699.996033 
	C505.195343,695.886902 505.589996,691.710205 505.744690,687.593079 
	C505.888306,683.771790 504.328918,682.092773 500.752716,681.671082 
	C498.621429,681.419800 496.507507,680.995422 494.399048,680.581238 
	C490.070038,679.730591 486.985443,677.050415 485.953308,672.959778 
	C484.712769,668.043274 481.243073,666.159058 477.153015,664.368591 
	C464.272125,658.730103 452.962311,651.026001 445.286774,638.878906 
	C443.150940,635.498718 441.307831,631.941589 441.679321,627.683594 
	C442.242401,621.229431 447.466217,617.460083 453.606964,619.564026 
	C458.787537,621.338928 463.789062,623.645996 468.836578,625.795715 
	C471.422607,626.897095 473.763672,627.184875 475.170135,624.185486 
	C476.554260,621.233826 474.353363,619.839722 472.304810,618.710449 
	C458.172974,610.920044 448.832733,599.330750 444.481110,583.786499 
	C443.767883,581.238770 443.298431,578.605530 442.929077,575.981812 
	C441.497131,565.810669 449.525085,558.649353 459.649872,561.042297 
	C465.730774,562.479492 471.058167,565.589355 476.342682,568.764160 
	C478.074280,569.804504 479.759430,571.122070 481.730804,569.302979 
	C483.731506,567.456848 482.514923,565.570312 481.546509,563.879211 
	C478.977051,559.392212 476.507965,554.895874 475.451569,549.748596 
	C473.674316,541.089233 479.050903,535.813171 487.356506,538.772461 
	C491.956573,540.411499 493.711792,539.292725 496.056915,535.220947 
	C505.074005,519.564575 522.495850,520.019165 530.998962,536.048523 
	C532.966431,539.757446 534.554993,540.939880 538.537476,538.937073 
	C541.641602,537.375977 545.352600,536.503174 548.378479,539.382263 
	C551.763245,542.602844 552.019348,546.834534 550.881348,550.993225 
	C549.650513,555.490845 547.577271,559.693542 544.964233,563.601807 
	C543.721680,565.460266 542.672241,567.326843 544.845520,569.367981 
	C547.016663,571.407104 548.580994,569.542236 550.130554,568.584045 
	C554.955933,565.600098 559.790771,562.697937 565.355896,561.250366 
	C571.908020,559.545959 576.929993,561.268921 581.257141,567.104614 
z"/>
<path fill="#000000" opacity="1.000000" stroke="none" 
	d="
M631.482544,720.461304 
	C632.602112,722.408386 634.704712,724.126953 632.496216,725.973938 
	C629.821045,728.211243 627.551636,731.641296 623.101501,730.213562 
	C617.724792,728.488647 612.309998,726.882324 606.909302,725.232544 
	C605.353638,724.757263 603.830994,723.864807 601.571167,725.047546 
	C602.892090,729.459412 605.697510,733.184998 608.340271,736.789307 
	C611.795349,741.501404 608.476929,742.900940 605.436768,745.183411 
	C602.036499,747.736206 600.011169,747.105591 597.955566,743.604614 
	C591.907043,733.302734 585.682556,723.104187 579.512634,712.841492 
	C584.111877,707.976318 588.587646,705.588013 595.193604,708.270996 
	C599.827454,710.153015 604.671570,712.115417 610.349426,712.493225 
	C609.525940,707.650818 606.467957,704.495361 604.457336,700.842041 
	C601.975098,696.331787 602.322021,695.848511 608.964050,691.605225 
	C612.949036,689.059387 613.602966,692.641357 614.750610,694.600281 
	C619.888977,703.370544 625.590515,711.765686 631.482544,720.461304 
z"/>
<path fill="#000000" opacity="1.000000" stroke="none" 
	d="
M659.432617,688.485840 
	C661.552856,687.083130 663.256470,685.715027 664.342896,683.807312 
	C665.131897,682.422058 666.285583,680.872559 664.483337,679.355774 
	C662.882568,678.008545 661.629761,679.091858 660.590515,680.149902 
	C658.602539,682.173828 656.997681,682.360107 654.722900,680.254089 
	C651.657349,677.416077 651.303223,675.293274 654.431091,672.087402 
	C663.970703,662.309937 663.858704,662.200623 674.008057,671.098938 
	C680.284119,676.601440 680.442749,676.987000 676.884888,684.534302 
	C672.466919,693.906311 665.779358,700.876831 655.070740,702.276978 
	C645.937866,703.471130 638.416931,698.951599 634.240479,690.775391 
	C629.985229,682.445129 630.932190,672.764709 636.772095,666.023315 
	C642.007690,659.979431 648.435120,656.458618 657.011108,656.642151 
	C656.649231,661.880554 657.425415,666.730713 650.890076,668.861145 
	C646.702881,670.226074 643.582397,673.955078 643.534119,678.702148 
	C643.486694,683.375000 646.562134,686.573547 650.350281,689.078125 
	C653.424011,691.110474 656.289368,690.678833 659.432617,688.485840 
z"/>
<path fill="#000000" opacity="1.000000" stroke="none" 
	d="
M385.789642,678.706299 
	C386.619781,677.654175 387.196686,676.836243 387.826111,676.060913 
	C392.180969,670.696960 396.920380,671.312622 400.287994,677.578369 
	C401.230438,679.331848 400.234680,680.494446 399.356903,681.620544 
	C392.291046,690.685242 385.152191,699.693054 378.068787,708.744202 
	C376.458618,710.801697 374.873993,710.812927 373.066071,709.044067 
	C371.054871,707.076233 368.992981,705.160339 366.564331,702.852295 
	C369.112885,699.668274 371.497437,696.554871 374.033539,693.570190 
	C375.592255,691.735779 375.644806,690.343933 374.005005,688.384827 
	C365.985657,678.803955 366.030792,678.759399 357.751404,688.037964 
	C356.765747,689.142578 355.981476,690.489929 354.439545,690.975586 
	C354.114502,690.906433 353.717407,690.934814 353.481323,690.753540 
	C344.720093,684.025208 344.663239,683.972717 351.698120,675.647766 
	C358.132568,668.033264 364.713226,660.542358 371.289581,652.927429 
	C374.464966,653.955933 376.304871,656.445740 378.612579,658.250977 
	C380.559631,659.773926 380.548859,661.585693 378.935150,663.421387 
	C378.605591,663.796265 378.310974,664.201965 378.001801,664.594727 
	C372.971039,670.986572 374.245575,676.182800 381.637726,679.954224 
	C383.416779,680.861877 384.448029,680.049866 385.789642,678.706299 
z"/>
<path fill="#000000" opacity="1.000000" stroke="none" 
	d="
M424.715149,744.487915 
	C420.597870,742.452454 417.254089,740.442627 419.197845,735.230469 
	C419.847656,733.487976 418.248352,732.533997 417.005280,731.723206 
	C414.779266,730.271362 412.298370,729.150635 410.265259,727.476990 
	C407.388519,725.108521 405.007385,724.525513 402.320923,727.733032 
	C400.039398,730.457031 397.610107,729.228210 395.367767,727.410156 
	C393.720032,726.074219 391.600739,725.262451 390.440918,722.882324 
	C393.006744,719.225586 397.026276,717.077332 400.467346,714.371521 
	C407.261108,709.029236 414.409943,704.139893 421.237457,698.838440 
	C423.905701,696.766663 426.112091,696.477661 428.750244,698.639465 
	C430.154999,699.790527 431.761810,700.729797 433.371826,701.587463 
	C435.777039,702.868835 436.316681,704.481934 435.825256,707.290100 
	C433.798615,718.870361 431.956970,730.490906 430.431030,742.146912 
	C429.854218,746.552673 428.293091,746.886292 424.715149,744.487915 
M418.297028,714.778687 
	C417.434998,715.668640 415.918732,716.084778 416.161804,718.174622 
	C417.631561,718.997253 419.339142,720.904114 421.203888,719.778381 
	C423.815979,718.201294 422.043976,715.447815 422.387756,713.250488 
	C420.626160,712.961365 419.764923,713.817688 418.297028,714.778687 
z"/>
<path fill="#000000" opacity="1.000000" stroke="none" 
	d="
M451.963867,757.712280 
	C448.795410,752.642090 449.147034,747.394592 450.078430,742.347778 
	C451.439819,734.971130 454.748535,728.151733 457.125793,721.060730 
	C457.864349,718.857727 459.328491,718.303772 461.414886,719.222839 
	C462.938568,719.893921 464.418243,720.703979 465.996033,721.204895 
	C469.126770,722.198730 469.585083,723.998901 468.451477,726.939392 
	C466.239624,732.677063 464.277893,738.512146 462.266083,744.325439 
	C460.781708,748.614563 462.071350,751.899841 466.218201,753.766846 
	C470.709900,755.789185 473.173065,752.734680 475.045807,749.507263 
	C477.814545,744.735718 479.183899,739.364990 480.770447,734.108398 
	C482.832886,727.275208 482.851013,727.267212 489.505554,729.509277 
	C490.900879,729.979431 492.253754,730.575500 494.147125,731.317810 
	C491.598480,741.302795 489.399780,751.260559 483.458252,759.630432 
	C476.541565,769.374023 461.311127,768.387207 451.963867,757.712280 
z"/>
<path fill="#000000" opacity="1.000000" stroke="none" 
	d="
M610.953369,600.435486 
	C612.572205,597.415710 614.867432,596.625671 617.781006,596.636047 
	C635.561157,596.699402 653.341736,596.633545 671.121948,596.685303 
	C676.151428,596.699890 678.362671,598.706116 678.319763,602.858154 
	C678.270752,607.599487 675.326172,609.234009 671.151611,609.244873 
	C653.371399,609.291260 635.590515,609.341431 617.810974,609.226135 
	C612.320740,609.190552 610.647705,606.935669 610.953369,600.435486 
z"/>
<path fill="#000000" opacity="1.000000" stroke="none" 
	d="
M405.794556,596.661255 
	C406.930817,596.667236 407.595947,596.679810 408.261047,596.677307 
	C412.512634,596.661072 415.049286,598.972656 415.015717,603.007446 
	C414.983765,606.850220 412.154175,608.965149 408.420807,609.176636 
	C403.944550,609.430176 399.445221,609.295288 394.955902,609.296326 
	C381.985321,609.299438 369.013947,609.367493 356.044464,609.244873 
	C349.816956,609.185974 346.391235,604.667969 348.742126,600.007324 
	C350.257599,597.002991 352.978485,596.648315 355.935333,596.652588 
	C372.397980,596.676270 388.860687,596.662109 405.794556,596.661255 
z"/>
<path fill="#000000" opacity="1.000000" stroke="none" 
	d="
M522.891357,750.353516 
	C523.016846,751.809387 523.096924,752.805847 523.140869,753.803955 
	C523.504150,762.056152 524.087219,762.558044 532.236633,761.483948 
	C533.555420,761.310181 534.851257,760.945435 536.172180,760.808167 
	C542.700378,760.129639 543.680115,761.210938 543.340271,767.813477 
	C543.209595,770.350830 542.259033,771.303223 539.757324,771.417114 
	C531.450256,771.795593 523.148438,772.302185 514.849548,772.837891 
	C512.299683,773.002502 511.732269,771.602600 511.668640,769.484070 
	C511.348877,758.837158 511.141571,748.183716 510.585480,737.548706 
	C510.350586,733.056335 511.741241,730.987122 516.416992,731.583008 
	C518.037048,731.789490 519.705627,731.615845 521.675659,731.615845 
	C523.254272,737.675903 521.574524,743.904968 522.891357,750.353516 
z"/>
<path fill="#000000" opacity="1.000000" stroke="none" 
	d="
M559.098145,744.781067 
	C557.263000,740.088867 555.763611,735.670105 553.869934,731.427429 
	C552.098938,727.459595 553.219116,725.245361 557.244019,724.024414 
	C559.113159,723.457397 560.873413,722.531555 563.328369,721.496277 
	C568.091980,733.996338 572.723755,746.150330 577.470154,758.605225 
	C576.790771,759.041931 576.386475,759.339966 575.949219,759.577332 
	C564.581421,765.747864 566.371582,763.781555 563.270203,755.329529 
	C562.012268,751.901489 560.602478,748.529114 559.098145,744.781067 
z"/>
<path fill="#000000" opacity="1.000000" stroke="none" 
	d="
M384.661865,337.724304 
	C384.657715,326.437775 384.605988,315.619629 384.671936,304.802185 
	C384.749146,292.134155 398.756958,283.647888 410.322083,289.224365 
	C414.140167,291.065369 415.220581,294.627716 415.267609,298.363373 
	C415.420502,310.510529 415.613190,322.669800 415.237885,334.807343 
	C414.884064,346.249664 400.379913,354.717163 390.145996,349.723633 
	C385.394318,347.405060 385.142303,342.683258 384.661865,337.724304 
z"/>
<path fill="#000000" opacity="1.000000" stroke="none" 
	d="
M514.426147,285.735107 
	C517.387695,296.598846 520.839844,306.930359 522.732605,318.332520 
	C514.833191,318.332520 507.576874,318.348816 500.320709,318.321259 
	C498.454102,318.314178 497.440460,317.239929 497.903076,315.437531 
	C501.315308,302.143707 504.142853,288.681458 509.133606,275.836853 
	C509.222870,275.607025 509.674500,275.518036 510.318146,275.165558 
	C513.131287,277.942657 512.990417,281.970978 514.426147,285.735107 
z"/>
</svg>